<svg xmlns="http://www.w3.org/2000/svg" viewBox="0 0 600 600" width="600" height="600">
  <defs>
    <linearGradient id="g2" x1="0" y1="0" x2="1" y2="1">
      <stop offset="0" stop-color="#dff3ef"/>
      <stop offset="1" stop-color="#a7d8cf"/>
    </linearGradient>
  </defs>
  <rect width="600" height="600" fill="url(#g2)"/>
  <path d="M215 200 h150 a20 20 0 0 1 20 20 v150 a55 55 0 0 1 -55 55 h-80 a55 55 0 0 1 -55 -55 v-150 a20 20 0 0 1 20 -20 Z" fill="#6bab9f"/>
  <path d="M385 235 h34 a34 34 0 0 1 0 68 h-34 Z" fill="none" stroke="#6bab9f" stroke-width="16"/>
  <circle cx="265" cy="255" r="9" fill="#33564f"/>
  <circle cx="315" cy="255" r="9" fill="#33564f"/>
  <circle cx="290" cy="300" r="7" fill="#4c7d73"/>
</svg>
